<svg id="Layer_1" data-name="Layer 1" xmlns="http://www.w3.org/2000/svg" viewBox="0 0 177.55 200"><defs><style>.cls-1{opacity:0.4;}.cls-2{fill:#fff;}</style></defs><title>icon-sml</title><g class="cls-1"><path class="cls-2" d="M171.29,45.13,95.55,1.41c-3.25-1.88-9.73-1.88-13,0L51.64,19.26A100.91,100.91,0,0,0,37.53,58.45a109.82,109.82,0,0,1,111.14,4.77,110.61,110.61,0,0,1,29.1,27.5V56.38C177.77,52.45,174.68,47.09,171.29,45.13Z" transform="translate(-0.23)"/><path class="cls-2" d="M95.21,198.55,171.06,155c3.25-1.87,6.5-7.47,6.51-11.22l.09-35.72a100.82,100.82,0,0,0-26.8-31.88,109.84,109.84,0,0,1-59.93,93.72,110.44,110.44,0,0,1-38.4,11.35l29.7,17.25C85.62,200.48,91.81,200.5,95.21,198.55Z" transform="translate(-0.23)"/><path class="cls-2" d="M.23,56.58.69,144c0,3.76,3.29,9.35,6.55,11.21l31,17.69a100.71,100.71,0,0,0,41-7.59A109.82,109.82,0,0,1,27.25,67a110.66,110.66,0,0,1,9.06-39L6.66,45.31C3.27,47.29.21,52.66.23,56.58Z" transform="translate(-0.23)"/></g></svg>